<svg width="24" height="24" viewBox="0 0 24 24" fill="none" xmlns="http://www.w3.org/2000/svg">
<path d="M10.065 12.4931L3.88503 13.8111C3.64515 13.8632 3.39442 13.8187 3.18707 13.6873C2.97971 13.556 2.83242 13.3482 2.77703 13.1091L2.24003 10.9591C2.17689 10.7001 2.21274 10.4268 2.34056 10.1928C2.46838 9.95881 2.67895 9.78097 2.93103 9.69412L16.435 5.25412M13.56 11.7471L17.892 10.8231M16 21.0001L12.895 14.7901M6.15803 8.63312L7.27203 13.0891M8.00003 21.0001L11.105 14.7901M16.485 5.94012C16.3565 5.4256 16.4375 4.88109 16.7104 4.42634C16.9832 3.97158 17.4255 3.64382 17.94 3.51512L19.03 3.24312C19.2871 3.17898 19.5592 3.21951 19.7865 3.35583C20.0137 3.49214 20.1776 3.71308 20.242 3.97012L21.757 10.0301C21.8215 10.2874 21.7811 10.5597 21.6447 10.7872C21.5084 11.0147 21.2873 11.1787 21.03 11.2431L19.94 11.5151C19.4255 11.6437 18.881 11.5626 18.4262 11.2897C17.9715 11.0169 17.6437 10.5746 17.515 10.0601L16.485 5.94012ZM14 13.0001C14 14.1047 13.1046 15.0001 12 15.0001C10.8955 15.0001 10 14.1047 10 13.0001C10 11.8955 10.8955 11.0001 12 11.0001C13.1046 11.0001 14 11.8955 14 13.0001Z" stroke="currentColor" stroke-linecap="round" stroke-linejoin="round"/>
</svg>
